@startuml
skinparam linetype ortho
left to right direction


package "Laewtae"{
    class "<<Application>>\nLaewtaeService" as LaewtaeService{}

    class "<<Resource>>\nAuthentication" as ResourceAuthentication {
    }

    class "<<Resource>>\nRegisterAuthentication" as RegisterAuthentication {
        <<POST>> +register(): User
    }
    
    class "<<Resource>>\nAuthentication" as LoginResourceAuthentication {
        <<POST>> +login(): User
    }

    class "<<Resource>>\nAuthentication" as GetmeResourceAuthentication {
        <<GET>> +getMe(): User
    }

    class "<<Resource>>\nAuthentication" as LogoutResourceAuthentication {
        <<GET>> +logout(): User
    }

    class "<<Resource>>\nDentists" as ResourceDentists{
        <<GET>> +getDentists(): Dentist
        <<POST>> +createDentist(): Dentist
    }

    class "<<Resource>>\nDentist" as ResourceDentist {
        <<GET>> +getDentist(): Dentist
        <<PUT>> +updateDentist(): Dentist
        <<DELETE>> +deleteDentist(): void
    }

    class "<<Representation>>\nDentist" as RepresentationDentist {
        -name
        -experience
        -area
    }

    class "<<Resource>>\nBooking" as ResourceBooking {
        <<GET>> +getBookings(): Booking
        <<GET>> +getBooking(): Booking
        <<GET>> +AddBooking(): Booking
        <<PUT>> +updateBooking(): Booking
        <<DELETE>> +deleteBooking(): void
    }

    class "<<Representation>>\nBooking" as RepresentationBooking {
        -appDate
        -user
        -dentist
    }




    class "<<Representation>>\nUser" as RepresentationUser {
        -name
        -tel
        -email
        -role
        -password
    }
}

LaewtaeService ..> ResourceAuthentication:"/auth\n<<Path>>"
ResourceAuthentication ..> RegisterAuthentication:"/register\n<<Path>>"
ResourceAuthentication ..> LoginResourceAuthentication:"/login\n<<Path>>"
ResourceAuthentication ..> GetmeResourceAuthentication:"/getMe\n<<Path>>"
ResourceAuthentication ..> LogoutResourceAuthentication:"/logout\n<<Path>>"


LaewtaeService ..> ResourceDentists:"/dentists\n<<Path>>"
ResourceDentists ..> ResourceDentist: "/{dentistId}\n<<Path>>"

ResourceDentist ..> RepresentationDentist: "<<use>>"

LaewtaeService ..> ResourceBooking:"/bookings\n<<Path>>"
ResourceBooking ..> RepresentationBooking: "<<use>>"



RegisterAuthentication ..> RepresentationUser: "<<use>>"
LoginResourceAuthentication ..> RepresentationUser: "<<use>>"
LogoutResourceAuthentication ..> RepresentationUser: "<<use>>"
GetmeResourceAuthentication ..> RepresentationUser: "<<use>>"

@enduml