@startuml
left to right direction
package "Laewtae"{
    class "<<Application>>\nLaewtaeService" as LaewtaeService{}

    class "<<Resource>>\nDentists" as ResourceDentists{
        <<GET>> +getDentists(): Dentist
        <<POST>> +createDentist(): Dentist
    }

    class "<<Resource>>\nDentist" as ResourceDentist {
        <<GET>> +getDentist(): Dentist
        <<PUT>> +updateDentist(): Dentist
        <<DELETE>> +deleteDentist(): void
    }

    class "<<Representation>>\nDentist" as RepresentationDentist {
        -name
        -experience
        -area
    }

}

LaewtaeService ..> ResourceDentists:"/dentists\n<<Path>>"
ResourceDentists ..> ResourceDentist: "/{dentistId}\n<<Path>>"
ResourceDentist ..> RepresentationDentist: "<<use>>"

@enduml